<svg width="127" height="36" viewBox="0 0 127 36" fill="none" xmlns="http://www.w3.org/2000/svg">
<path d="M49.2127 24.5364L59.2324 12.2686H49.6002V8.28092H64.6852V11.6871L55.136 23.9548H64.7959V27.9425H49.2127V24.5364Z" fill="#150E06"/>
<path d="M66.2378 23.5948C66.2378 22.6348 66.5054 21.7948 67.0405 21.0748C67.5756 20.3548 68.3137 19.7917 69.2548 19.3856C70.1959 18.961 71.2754 18.7486 72.4933 18.7486C73.0837 18.7486 73.665 18.804 74.237 18.9148C74.8091 19.0071 75.3073 19.1456 75.7317 19.3302V18.6933C75.7317 17.8994 75.4918 17.2902 75.012 16.8656C74.5323 16.4409 73.8034 16.2286 72.8254 16.2286C72.0135 16.2286 71.2477 16.3671 70.528 16.644C69.8268 16.921 69.0795 17.3179 68.2861 17.8348L66.9575 15.0102C67.917 14.3825 68.9134 13.9117 69.9468 13.5979C70.9986 13.284 72.1058 13.1271 73.2683 13.1271C75.4457 13.1271 77.1341 13.6532 78.3335 14.7056C79.5514 15.7394 80.1603 17.244 80.1603 19.2194V23.0133C80.1603 23.4564 80.2249 23.7702 80.3541 23.9548C80.5017 24.121 80.7508 24.2225 81.1014 24.2594V27.9425C80.7324 28.0164 80.3818 28.0718 80.0496 28.1087C79.7359 28.1456 79.4591 28.1641 79.2192 28.1641C78.3889 28.1641 77.7523 27.9979 77.3094 27.6656C76.885 27.3333 76.6174 26.881 76.5067 26.3087L76.4237 25.6718C75.7778 26.5025 75.0028 27.1394 74.0986 27.5825C73.2129 28.0071 72.2811 28.2194 71.3031 28.2194C70.3435 28.2194 69.4762 28.0164 68.7012 27.6102C67.9447 27.2041 67.345 26.6502 66.9021 25.9487C66.4593 25.2471 66.2378 24.4625 66.2378 23.5948ZM75.0397 24.1487C75.2427 23.9825 75.4088 23.7979 75.5379 23.5948C75.6671 23.3917 75.7317 23.1979 75.7317 23.0133V21.7117C75.3626 21.564 74.9475 21.4533 74.4861 21.3794C74.0433 21.2871 73.6281 21.241 73.2406 21.241C72.4287 21.241 71.7551 21.4256 71.22 21.7948C70.6849 22.1456 70.4173 22.6164 70.4173 23.2071C70.4173 23.5394 70.5096 23.8441 70.6941 24.121C70.8786 24.3979 71.1278 24.6194 71.4415 24.7856C71.7736 24.9517 72.1611 25.0348 72.604 25.0348C73.0468 25.0348 73.4897 24.9517 73.9326 24.7856C74.3754 24.6194 74.7445 24.4071 75.0397 24.1487Z" fill="#150E06"/>
<path d="M92.5864 17.1979C91.5162 17.1979 90.5474 17.3733 89.6801 17.724C88.8129 18.0563 88.1855 18.5548 87.798 19.2194V27.9425H83.3693V13.404H87.4382V16.3394C87.9364 15.3609 88.5822 14.5948 89.3757 14.0409C90.1691 13.4871 90.9995 13.2009 91.8668 13.1825C92.0698 13.1825 92.2174 13.1825 92.3096 13.1825C92.4204 13.1825 92.5126 13.1917 92.5864 13.2102V17.1979Z" fill="#150E06"/>
<path d="M103.669 17.1979C102.599 17.1979 101.63 17.3733 100.763 17.724C99.8953 18.0563 99.2679 18.5548 98.8804 19.2194V27.9425H94.4517V13.404H98.5205V16.3394C99.0188 15.3609 99.6646 14.5948 100.458 14.0409C101.252 13.4871 102.082 13.2009 102.949 13.1825C103.152 13.1825 103.3 13.1825 103.392 13.1825C103.503 13.1825 103.595 13.1917 103.669 13.2102V17.1979Z" fill="#150E06"/>
<path d="M105.534 27.9425V13.404H109.963V27.9425H105.534ZM105.534 11.7425V7.72707H109.963V11.7425H105.534Z" fill="#150E06"/>
<path d="M127 27.9425H122.571V19.7733C122.571 18.8133 122.387 18.121 122.018 17.6963C121.667 17.2533 121.197 17.0317 120.606 17.0317C120.2 17.0317 119.785 17.1425 119.361 17.364C118.936 17.5856 118.549 17.8902 118.198 18.2779C117.866 18.6656 117.608 19.1087 117.423 19.6071V27.9425H112.994V13.404H116.98V15.8409C117.349 15.2686 117.811 14.7794 118.364 14.3733C118.918 13.9671 119.554 13.6625 120.274 13.4594C120.994 13.2379 121.778 13.1271 122.627 13.1271C123.568 13.1271 124.324 13.3025 124.896 13.6532C125.487 13.9856 125.93 14.4286 126.225 14.9825C126.539 15.5363 126.742 16.1363 126.834 16.7825C126.945 17.4102 127 18.0286 127 18.6379V27.9425Z" fill="#150E06"/>
<path d="M4.01639 32.029C0.897186 28.9514 -0.566159 24.2708 0.31332 19.9692C1.18333 15.1381 4.93374 10.927 9.66989 9.59976C11.9885 11.9532 14.3366 14.2751 16.6657 16.6159C17.1455 17.079 17.5852 17.5831 18.1028 18.0052C16.4522 18.022 14.7984 17.961 13.1499 18.0252C10.8723 18.1694 8.94295 20.3186 9.07024 22.6036C9.0492 24.9097 11.1164 26.9937 13.4224 26.98C17.9587 26.9906 22.4939 26.979 27.028 26.9874C30.0084 29.9723 32.9835 32.9636 35.9796 35.9338C35.5167 36.0222 35.0464 35.998 34.5793 35.9938C27.5845 35.9949 20.5918 35.9938 13.5991 35.9949C10.0528 36.0043 6.50965 34.5645 4.01639 32.029Z" fill="#7C4EE4"/>
<path d="M8.83687 8.80433C5.88809 5.87411 2.98455 2.89548 0 0C6.98113 0.0273652 13.9612 0.00420896 20.9423 0.0126288C22.1143 0.0284166 23.2978 -0.0536778 24.456 0.166299C27.4248 0.575729 30.2368 2.02926 32.2914 4.21008C34.5753 6.5793 35.9114 9.81896 36.0155 13.1049C36.0934 15.8131 35.3275 18.5422 33.8621 20.8199C32.1378 23.4691 29.4731 25.5636 26.4075 26.4014C24.1184 24.0743 21.7934 21.7798 19.4895 19.4653C19.0256 19.0348 18.6363 18.5191 18.104 18.1633C18.1945 18.0886 18.2923 18.0255 18.3996 17.9749C19.863 18.0055 21.3295 18.0013 22.7939 17.9823C25.0662 17.9192 27.0608 15.8415 27.0156 13.5649C27.0819 11.7156 25.831 9.93895 24.1068 9.30428C23.4493 9.0201 22.7234 9.01589 22.0196 9.0222C17.7716 9.02641 13.5246 9.02115 9.27767 9.02536C9.09988 9.02641 8.95259 8.95274 8.83687 8.80433Z" fill="#7C4EE4"/>
</svg>
